<svg width="22" height="22" viewBox="0 0 22 22" fill="none" xmlns="http://www.w3.org/2000/svg">
<g clip-path="url(#clip0_293_2592)">
<path d="M18.9365 13.6199C18.407 13.1159 17.7037 12.8353 16.9726 12.8365C16.2416 12.8377 15.5392 13.1206 15.0113 13.6263L13.2642 15.0985C11.838 14.5081 10.5425 13.6417 9.452 12.5492C8.36154 11.4567 7.49762 10.1596 6.90985 8.73226L8.37652 6.99059C8.88186 6.46268 9.1644 5.76037 9.16542 5.02957C9.16645 4.29877 8.88588 3.59567 8.38202 3.06634C8.38202 3.06634 6.68527 0.863592 6.65685 0.835175C6.13393 0.308283 5.42459 0.00845761 4.6823 0.000566337C3.94 -0.00732494 3.22445 0.277353 2.69044 0.793009L1.63628 1.70968C-5.44038 9.23368 12.8196 27.5028 20.3363 20.318L21.1723 19.3555C21.7029 18.8229 22.0009 18.1017 22.0009 17.3498C22.0009 16.598 21.7029 15.8768 21.1723 15.3442C21.1429 15.3176 18.9365 13.6199 18.9365 13.6199ZM20.6855 11.5272C25.2606 4.79334 17.2022 -3.25224 10.4757 1.31918C10.2763 1.45836 10.1404 1.67103 10.0979 1.91042C10.0553 2.1498 10.1096 2.39628 10.2488 2.59563C10.388 2.79499 10.6007 2.93089 10.84 2.97343C11.0794 3.01598 11.3259 2.96169 11.5253 2.82251C16.5413 -0.622325 22.6261 5.46526 19.1822 10.4785C19.1104 10.5771 19.059 10.689 19.031 10.8077C19.003 10.9264 18.9989 11.0495 19.0191 11.1697C19.0393 11.29 19.0832 11.4051 19.1484 11.5081C19.2136 11.6112 19.2987 11.7002 19.3987 11.77C19.4987 11.8398 19.6117 11.8889 19.7309 11.9145C19.8501 11.94 19.9733 11.9416 20.0931 11.9189C20.213 11.8963 20.3271 11.85 20.4288 11.7828C20.5305 11.7155 20.6178 11.6286 20.6855 11.5272ZM17.149 9.81759C17.3209 9.64569 17.4174 9.41258 17.4174 9.16951C17.4174 8.92644 17.3209 8.69333 17.149 8.52143L15.5843 6.95668V4.58343C15.5843 4.34031 15.4877 4.10715 15.3158 3.93524C15.1439 3.76334 14.9107 3.66676 14.6676 3.66676C14.4245 3.66676 14.1913 3.76334 14.0194 3.93524C13.8475 4.10715 13.7509 4.34031 13.7509 4.58343V7.33343C13.751 7.57652 13.8476 7.80964 14.0195 7.98151L15.8528 9.81484C16.0247 9.98669 16.2579 10.0832 16.5009 10.0832C16.744 10.0832 16.9771 9.98669 17.149 9.81484V9.81759Z" fill="#5A5B70"/>
</g>
<defs>
<clipPath id="clip0_293_2592">
<rect width="22" height="22" fill="white"/>
</clipPath>
</defs>
</svg>
