<svg width="22" height="22" viewBox="0 0 22 22" fill="none" xmlns="http://www.w3.org/2000/svg">
<g clip-path="url(#clip0_293_2567)">
<path d="M11.0008 0.0389099C8.57526 0.0415784 6.2498 1.00625 4.53459 2.72129C2.81937 4.43633 1.85447 6.76169 1.85156 9.18724C1.85156 11.5431 3.67573 15.2299 7.27365 20.1451C7.70197 20.7319 8.26278 21.2092 8.91045 21.5383C9.55811 21.8674 10.2743 22.0389 11.0008 22.0389C11.7273 22.0389 12.4435 21.8674 13.0912 21.5383C13.7388 21.2092 14.2997 20.7319 14.728 20.1451C18.3259 15.2299 20.1501 11.5431 20.1501 9.18724C20.1472 6.76169 19.1822 4.43633 17.467 2.72129C15.7518 1.00625 13.4264 0.0415784 11.0008 0.0389099ZM11.0008 12.8337C10.2756 12.8337 9.5667 12.6187 8.96372 12.2158C8.36074 11.8129 7.89077 11.2402 7.61325 10.5703C7.33573 9.90026 7.26312 9.16301 7.4046 8.45175C7.54608 7.74048 7.89529 7.08714 8.40809 6.57435C8.92088 6.06156 9.57422 5.71234 10.2855 5.57086C10.9967 5.42939 11.734 5.502 12.404 5.77952C13.074 6.05704 13.6466 6.52701 14.0495 7.12999C14.4524 7.73297 14.6675 8.44188 14.6675 9.16708C14.6675 10.1395 14.2812 11.0722 13.5935 11.7598C12.9059 12.4474 11.9733 12.8337 11.0008 12.8337Z" fill="#5A5B70"/>
</g>
<defs>
<clipPath id="clip0_293_2567">
<rect width="22" height="22" fill="white"/>
</clipPath>
</defs>
</svg>
