<svg width="22" height="22" viewBox="0 0 22 22" fill="none" xmlns="http://www.w3.org/2000/svg">
<g clip-path="url(#clip0_304_2613)">
<path d="M21.9578 5.08002L14.2413 12.7965C13.3809 13.6548 12.2153 14.1367 11 14.1367C9.78474 14.1367 8.61908 13.6548 7.75867 12.7965L0.0421667 5.08002C0.0293333 5.22485 0 5.35593 0 5.49985V16.4999C0.00145554 17.715 0.484808 18.8799 1.34403 19.7392C2.20326 20.5984 3.3682 21.0817 4.58333 21.0832H17.4167C18.6318 21.0817 19.7967 20.5984 20.656 19.7392C21.5152 18.8799 21.9985 17.715 22 16.4999V5.49985C22 5.35593 21.9707 5.22485 21.9578 5.08002Z" fill="#5A5B70"/>
<path d="M12.9448 11.5003L21.3176 3.12659C20.912 2.45405 20.34 1.89737 19.6566 1.51026C18.9733 1.12314 18.2017 0.91865 17.4163 0.916504H4.58297C3.79759 0.91865 3.02602 1.12314 2.34267 1.51026C1.65931 1.89737 1.08725 2.45405 0.681641 3.12659L9.05447 11.5003C9.57108 12.0149 10.2705 12.3038 10.9996 12.3038C11.7288 12.3038 12.4282 12.0149 12.9448 11.5003Z" fill="#5A5B70"/>
</g>
<defs>
<clipPath id="clip0_304_2613">
<rect width="22" height="22" fill="white"/>
</clipPath>
</defs>
</svg>
