<svg width="25" height="25" viewBox="0 0 25 25" fill="none" xmlns="http://www.w3.org/2000/svg">
<g clip-path="url(#clip0_476_111)">
<path d="M12.9561 18.41L12.9421 18.415C12.8745 18.4421 12.8046 18.4629 12.7331 18.477C12.7331 18.477 12.7251 18.477 12.7211 18.477C12.5752 18.5053 12.4251 18.5053 12.2791 18.477C12.2791 18.477 12.2711 18.477 12.2671 18.477C12.1957 18.4628 12.1257 18.442 12.0581 18.415L12.0441 18.41C11.9745 18.383 11.9075 18.3495 11.8441 18.31L11.8371 18.3C11.7698 18.2554 11.7072 18.2041 11.6501 18.147L6.85013 13.347C6.62469 13.1216 6.49805 12.8158 6.49805 12.497C6.49805 12.1782 6.62469 11.8724 6.85013 11.647C7.07556 11.4216 7.38132 11.2949 7.70013 11.2949C8.01894 11.2949 8.32469 11.4216 8.55013 11.647L11.3001 14.4L11.3001 4.3C11.3001 3.98174 11.4266 3.67652 11.6516 3.45147C11.8766 3.22643 12.1819 3.1 12.5001 3.1C12.8184 3.1 13.1236 3.22643 13.3487 3.45147C13.5737 3.67652 13.7001 3.98174 13.7001 4.3L13.7001 14.4L16.4521 11.651C16.5638 11.5394 16.6963 11.4508 16.8421 11.3904C16.988 11.33 17.1443 11.2989 17.3021 11.2989C17.46 11.2989 17.6163 11.33 17.7621 11.3904C17.908 11.4508 18.0405 11.5394 18.1521 11.651C18.2638 11.7626 18.3523 11.8951 18.4127 12.041C18.4731 12.1868 18.5042 12.3431 18.5042 12.501C18.5042 12.6589 18.4731 12.8152 18.4127 12.961C18.3523 13.1069 18.2638 13.2394 18.1521 13.351L13.3521 18.151C13.2946 18.2068 13.2316 18.2567 13.1641 18.3L13.1521 18.307C13.0887 18.3465 13.0218 18.38 12.9521 18.407" fill="#414141"/>
</g>
<defs>
<clipPath id="clip0_476_111">
<rect width="12" height="15.4" fill="white" transform="translate(6.5 18.5) rotate(-90)"/>
</clipPath>
</defs>
</svg>
