<svg width="1420" height="498" viewBox="0 0 1420 498" fill="none" xmlns="http://www.w3.org/2000/svg">
<path opacity="0.2" d="M361.756 30.9663C285.319 64.649 201.21 94.8888 129.938 138.258C119.939 144.342 104.706 154.923 111.205 168.562C114.513 175.507 128.027 175.257 134.035 175.387C155.41 175.851 171.127 168.119 184.964 152.181C220.056 111.764 229.484 59.4238 224.187 9.12565C223.649 4.01291 224.22 -1.80268 217.162 2.43698C197.583 14.1987 179.494 30.5663 162.719 45.4355C130.382 74.1012 115.481 110.473 93.3498 145.902C64.5332 192.034 32.3367 233.63 21.053 287.047C16.0477 310.742 11.0369 336.069 9.34502 360.213C8.45813 372.87 8.75954 385.624 8.75954 398.297C8.75954 400.48 4.7267 417.238 15.4916 408.399C26.8065 399.107 68.2375 351.113 70.6656 348.337C101.1 313.541 131.928 278.886 155.988 239.816C168.06 220.21 176.771 199.081 188.185 179.209C194.18 168.77 187.098 202.874 186.428 214.7C184.69 245.439 184.424 276.737 194.478 306.431C204.666 336.524 234.965 367.092 265.751 380.551C294.726 393.22 282.338 345.84 280.971 336.188C280.115 330.154 264.809 246.91 263.409 240.09C261.549 231.027 255.91 205.842 252.286 214.428C231.436 263.814 239.287 328.319 200.77 371.133C191.568 381.364 113.04 439.101 126.132 453.036C138.476 466.173 208.342 458.037 218.918 457.676C261.502 456.227 302.427 452.422 343.902 443.207C368.902 437.653 409.049 433.642 425.418 411.811C437.361 395.882 443.101 362.377 446.932 345.744C451.738 324.872 456.448 303.521 460.249 282.406C466.06 250.133 430.615 300.54 426.15 307.113C419.476 316.934 396.895 347.787 418.979 352.705C466.695 363.334 522.494 359.001 570.451 354.753C626.918 349.751 678.944 335.955 733.631 323.494C772.684 314.594 815.311 306.626 855.833 310.798C895.552 314.889 928.687 335.351 958.424 358.848C980.684 376.435 1024.38 410.172 1014.77 444.027C1005.4 477.053 953.51 487.357 924.618 489.755C862.605 494.9 801.192 476.636 740.803 467.231C656.686 454.131 572.517 448.159 487.616 441.979C370.008 433.417 521.754 428.669 528.888 428.192C649.9 420.094 771.176 414.429 892.42 410.446C938.331 408.938 983.787 408.95 1029.4 403.621C1082.35 397.437 1134.68 388.678 1188.05 385.875C1215.06 384.457 1245.15 388.375 1270 375.775C1314.11 353.411 1352.98 311.895 1385.32 277.218C1408.02 252.896 1432.52 225.99 1433.77 192.177C1434.76 165.578 1425.75 136.563 1417.23 111.503C1408.54 85.9265 1400.92 79.9872 1393.24 111.913C1381.67 159.916 1378.11 210.744 1375.66 259.746C1373.82 296.88 1374.05 333.772 1381.96 370.315C1384.87 383.754 1408.29 427.02 1394.4 439.385C1367.36 463.454 1309.46 470.707 1275.56 474.329C1229.76 479.225 1184.99 475.533 1140.19 466.685C1116.34 461.975 1114.93 461.065 1129.51 443.207C1172.09 391.045 1204.96 337.975 1234.15 277.902C1265.75 212.86 1287.42 146.018 1313.62 79.2885C1326.38 46.7949 1333.06 50.1367 1362.79 66.4572C1408.86 91.7452 1454.88 118.822 1506.8 132.798C1547.24 143.682 1570.48 133.128 1605.15 116.964" stroke="#C98E3F" stroke-linecap="round"/>
<path opacity="0.2" d="M175.622 107.573C171.493 59.2079 128.939 23.3469 80.5732 27.4755C32.2079 31.6041 -3.6531 74.1589 0.475497 122.524C4.6041 170.89 47.1588 206.751 95.5242 202.622C143.89 198.493 179.75 155.939 175.622 107.573Z" fill="#C98E3F"/>
<path opacity="0.2" d="M1475.43 340.405C1468.95 264.508 1402.18 208.234 1326.28 214.712C1250.38 221.191 1194.11 287.97 1200.59 363.866C1207.07 439.763 1273.84 496.037 1349.74 489.558C1425.64 483.079 1481.91 416.301 1475.43 340.405Z" fill="#C98E3F"/>
<path opacity="0.2" d="M187.742 42.5587C185.783 19.6064 165.588 2.58821 142.635 4.54748C119.683 6.50676 102.665 26.7016 104.624 49.6539C106.584 72.6061 126.778 89.6243 149.731 87.6651C172.683 85.7058 189.701 65.511 187.742 42.5587Z" fill="#C98E3F"/>
<path opacity="0.2" d="M1184.68 437.518C1182.09 407.173 1155.39 384.674 1125.04 387.265C1094.7 389.855 1072.2 416.554 1074.79 446.898C1077.38 477.242 1104.08 499.741 1134.42 497.151C1164.77 494.56 1187.27 467.862 1184.68 437.518Z" fill="#C98E3F"/>
</svg>
