<svg width="21" height="20" viewBox="0 0 21 20" fill="none" xmlns="http://www.w3.org/2000/svg">
<path d="M6.28333 4.16652C6.28311 4.60855 6.1073 5.03239 5.79459 5.34479C5.48187 5.6572 5.05786 5.83258 4.61583 5.83236C4.1738 5.83214 3.74997 5.65633 3.43756 5.34361C3.12516 5.0309 2.94978 4.60688 2.95 4.16486C2.95022 3.72283 3.12602 3.29899 3.43874 2.98659C3.75146 2.67419 4.17547 2.4988 4.6175 2.49902C5.05952 2.49924 5.48336 2.67505 5.79576 2.98777C6.10817 3.30049 6.28355 3.7245 6.28333 4.16652ZM6.33333 7.06652H3V17.4999H6.33333V7.06652ZM11.6 7.06652H8.28333V17.4999H11.5667V12.0249C11.5667 8.97486 15.5417 8.69152 15.5417 12.0249V17.4999H18.8333V10.8915C18.8333 5.74986 12.95 5.94152 11.5667 8.46652L11.6 7.06652Z" fill="#414141"/>
</svg>
