<svg width="40" height="40" viewBox="0 0 40 40" fill="none" xmlns="http://www.w3.org/2000/svg">
<path fill-rule="evenodd" clip-rule="evenodd" d="M10 3.49206V36.5079C10 38.4366 11.539 40 13.4375 40H36.5625C38.461 40 40 38.4366 40 36.5079V9.18908C40 8.25627 39.6326 7.36224 38.9798 6.70629L33.3098 1.00927C32.6662 0.362663 31.7976 0 30.8925 0H13.4375C11.539 0 10 1.56345 10 3.49206ZM12.1875 36.5079V3.49206C12.1875 2.79075 12.7471 2.22222 13.4375 2.22222H30.4688V9.84127C30.4688 11.1562 31.5181 12.2222 32.8125 12.2222H37.8125V36.5079C37.8125 37.2093 37.2529 37.7778 36.5625 37.7778H13.4375C12.7471 37.7778 12.1875 37.2093 12.1875 36.5079ZM37.8125 10V9.18908C37.8125 8.84988 37.6789 8.52478 37.4415 8.28625L32.6562 3.47818V9.84127C32.6562 9.92893 32.7262 10 32.8125 10H37.8125Z" fill="#FC573B"/>
<path d="M25 30C30 30 32.5 27.5 32.5 22.5H27.5V17.5H25V22.5V30Z" fill="#FC573B"/>
<path d="M30 20V15C31.875 15 35 18.125 35 20H30Z" fill="#F9D4C4"/>
<path d="M0 11.5625C0 10.527 0.839466 9.6875 1.875 9.6875H20.625C21.6605 9.6875 22.5 10.527 22.5 11.5625V30.3125C22.5 31.348 21.6605 32.1875 20.625 32.1875H1.875C0.839466 32.1875 0 31.348 0 30.3125V11.5625Z" fill="#FC573B"/>
<path d="M7.5 26.9019V14.375H10.8325C12.0744 14.375 12.8861 14.4348 13.2678 14.5544C13.8774 14.7481 14.3787 15.1611 14.7717 15.7935C15.1705 16.4258 15.3699 17.2404 15.3699 18.2373C15.3699 19.1431 15.199 19.9036 14.8572 20.5188C14.5154 21.1283 14.0881 21.5584 13.5754 21.8091C13.0627 22.054 12.1798 22.1765 10.9265 22.1765H9.56787V26.9019H7.5ZM9.56787 16.4941V20.0488H10.7129C11.4819 20.0488 12.0032 19.9947 12.2766 19.8865C12.5557 19.7782 12.7836 19.5846 12.9602 19.3054C13.1368 19.0206 13.2251 18.6731 13.2251 18.2629C13.2251 17.8471 13.134 17.4967 12.9517 17.2119C12.7694 16.9271 12.5444 16.7362 12.2766 16.6394C12.0089 16.5426 11.4421 16.4941 10.5762 16.4941H9.56787Z" fill="white"/>
</svg>
