<svg width="18" height="18" viewBox="0 0 18 18" fill="none" xmlns="http://www.w3.org/2000/svg">
<path fill-rule="evenodd" clip-rule="evenodd" d="M14.2238 12.4575L13.344 11.5777C12.9045 11.1382 12.192 11.1382 11.7533 11.5777L11.0618 12.2692C10.9073 12.4237 10.6733 12.4755 10.4738 12.3877C9.47175 11.949 8.48175 11.2837 7.599 10.401C6.72 9.52198 6.057 8.53648 5.6175 7.53823C5.526 7.33198 5.57925 7.08973 5.739 6.92998L6.3585 6.31048C6.86175 5.80723 6.86175 5.09548 6.42225 4.65598L5.5425 3.77623C4.95675 3.19048 4.00725 3.19048 3.4215 3.77623L2.9325 4.26448C2.37675 4.82023 2.145 5.62198 2.295 6.41698C2.6655 8.37673 3.804 10.5225 5.64075 12.3592C7.4775 14.196 9.62325 15.3345 11.583 15.705C12.378 15.855 13.1798 15.6232 13.7355 15.0675L14.2238 14.5792C14.8095 13.9935 14.8095 13.044 14.2238 12.4575V12.4575Z" stroke="#5A5B70" stroke-width="1.2" stroke-linecap="round" stroke-linejoin="round"/>
<path d="M9.75 5.24323C10.5233 5.23273 11.3003 5.51923 11.8905 6.10948" stroke="#5A5B70" stroke-width="1.2" stroke-linecap="round" stroke-linejoin="round"/>
<path d="M14.0115 3.98849C12.8348 2.81174 11.292 2.22299 9.75 2.22299" stroke="#5A5B70" stroke-width="1.2" stroke-linecap="round" stroke-linejoin="round"/>
<path d="M12.7568 8.25C12.7673 7.47675 12.4808 6.69975 11.8905 6.1095" stroke="#5A5B70" stroke-width="1.2" stroke-linecap="round" stroke-linejoin="round"/>
<path d="M14.0115 3.98849C15.1883 5.16524 15.777 6.70799 15.777 8.24999" stroke="#5A5B70" stroke-width="1.2" stroke-linecap="round" stroke-linejoin="round"/>
</svg>
