<svg width="16" height="17" viewBox="0 0 16 17" fill="none" xmlns="http://www.w3.org/2000/svg">
<g clip-path="url(#clip0_476_1008)">
<path d="M2.06341 16.5L13.9334 16.5C14.4855 16.4956 15.0132 16.2723 15.4007 15.879C15.7882 15.4857 16.0038 14.9548 16.0001 14.4027L16.0001 11.1667L14.6667 11.1667L14.6667 14.4027C14.6688 14.501 14.6514 14.5988 14.6157 14.6904C14.5799 14.782 14.5265 14.8657 14.4584 14.9366C14.3903 15.0076 14.3088 15.0644 14.2188 15.1039C14.1287 15.1433 14.0317 15.1647 13.9334 15.1667L2.06007 15.1667C1.86267 15.1609 1.67554 15.0774 1.53944 14.9343C1.40333 14.7912 1.32928 14.6001 1.33341 14.4027L1.33341 2.59735C1.32929 2.39934 1.4038 2.20777 1.54062 2.06458C1.67744 1.92139 1.86542 1.83824 2.06341 1.83335L13.9334 1.83335C14.0317 1.83534 14.1287 1.85669 14.2188 1.89616C14.3088 1.93564 14.3903 1.99248 14.4584 2.06342C14.5265 2.13437 14.5799 2.21804 14.6157 2.30966C14.6514 2.40127 14.6688 2.49903 14.6667 2.59735L14.6667 5.83335L16.0001 5.83335L16.0001 2.59735C16.0038 2.04527 15.7882 1.51428 15.4007 1.12103C15.0132 0.727778 14.4855 0.504419 13.9334 0.500015L2.06008 0.500014C1.50916 0.506172 0.983118 0.730303 0.597053 1.12337C0.210988 1.51643 -0.00366085 2.04641 7.5602e-05 2.59735L7.457e-05 14.4027C-0.00365625 14.9542 0.21145 15.4847 0.598233 15.8778C0.985017 16.271 1.51191 16.4947 2.06341 16.5V16.5Z" fill="white"/>
<path d="M4.86523 12.951L11.5054 6.31078V10.3649L12.8405 10.3667L12.84 5.70031C12.84 5.4814 12.7969 5.26464 12.7132 5.06239C12.6294 4.86014 12.5066 4.67637 12.3518 4.52158C12.197 4.36679 12.0133 4.24401 11.811 4.16025C11.6088 4.07649 11.392 4.03339 11.1731 4.03342L6.50666 4.03295L6.50713 5.36938L10.5612 5.36938L3.92242 12.0082L4.86523 12.951Z" fill="white"/>
</g>
<defs>
<clipPath id="clip0_476_1008">
<rect width="16" height="16" fill="white" transform="translate(16 16.5) rotate(-180)"/>
</clipPath>
</defs>
</svg>
