<svg width="21" height="20" viewBox="0 0 21 20" fill="none" xmlns="http://www.w3.org/2000/svg">
<path d="M18.8333 4.83351C18.2069 5.10525 17.5445 5.28489 16.8667 5.36684C17.5818 4.93961 18.1177 4.26749 18.375 3.47517C17.703 3.87523 16.9673 4.15709 16.2 4.30851C15.6871 3.75232 15.0041 3.38209 14.2582 3.25588C13.5122 3.12968 12.7455 3.25464 12.0782 3.61117C11.4109 3.96769 10.8808 4.53562 10.571 5.22587C10.2613 5.91613 10.1894 6.68967 10.3667 7.42517C9.00785 7.35645 7.6787 7.00264 6.46554 6.38673C5.25239 5.77082 4.18237 4.90659 3.325 3.85017C3.02428 4.37531 2.86626 4.97003 2.86666 5.57517C2.8656 6.13716 3.00351 6.69069 3.26813 7.18648C3.53274 7.68227 3.91585 8.10493 4.38333 8.41684C3.83998 8.40206 3.30824 8.25626 2.83333 7.99184V8.03351C2.8374 8.82092 3.11333 9.58275 3.61443 10.1901C4.11553 10.7975 4.81104 11.2132 5.58333 11.3668C5.28604 11.4573 4.97739 11.505 4.66666 11.5085C4.45157 11.506 4.23702 11.4865 4.025 11.4502C4.24492 12.1275 4.67052 12.7195 5.24256 13.1436C5.8146 13.5678 6.50464 13.8031 7.21666 13.8168C6.01433 14.7629 4.5299 15.2792 3 15.2835C2.72144 15.2844 2.44311 15.2677 2.16666 15.2335C3.72869 16.2421 5.54901 16.7774 7.40833 16.7752C8.69141 16.7885 9.96428 16.546 11.1526 16.0619C12.3409 15.5778 13.4208 14.8617 14.3293 13.9556C15.2378 13.0494 15.9566 11.9713 16.4438 10.7843C16.931 9.59719 17.1767 8.32495 17.1667 7.04184V6.60017C17.8206 6.11252 18.3846 5.5147 18.8333 4.83351Z" fill="#414141"/>
</svg>
