<svg width="21" height="20" viewBox="0 0 21 20" fill="none" xmlns="http://www.w3.org/2000/svg">
<path d="M10.7033 3.3335C11.1483 3.336 12.2617 3.34683 13.445 3.39433L13.865 3.41266C15.0558 3.4685 16.2458 3.56516 16.8367 3.72933C17.6242 3.951 18.2425 4.596 18.4517 5.41433C18.785 6.71433 18.8267 9.24933 18.8317 9.8635L18.8325 9.99016V10.1352C18.8267 10.7493 18.785 13.2852 18.4517 14.5843C18.24 15.4052 17.6208 16.051 16.8367 16.2693C16.2458 16.4335 15.0558 16.5302 13.865 16.586L13.445 16.6052C12.2617 16.6518 11.1483 16.6635 10.7033 16.6652L10.5075 16.666H10.295C9.35334 16.6602 5.41501 16.6177 4.16167 16.2693C3.37501 16.0477 2.75584 15.4027 2.54667 14.5843C2.21334 13.2843 2.17167 10.7493 2.16667 10.1352V9.8635C2.17167 9.24933 2.21334 6.7135 2.54667 5.41433C2.75834 4.5935 3.37751 3.94766 4.16251 3.73016C5.41501 3.381 9.35417 3.3385 10.2958 3.3335H10.7033ZM8.83251 7.0835V12.9168L13.8325 10.0002L8.83251 7.0835Z" fill="#414141"/>
</svg>
